HIERARCHY
ROOT Hips
{
	OFFSET 0.000000 71.427986 0.000000
	CHANNELS 6 Xposition Yposition Zposition Xrotation Yrotation Zrotation
	JOINT Pelvis
	{
		OFFSET 0.000000 0.000000 0.000000
		CHANNELS 3 Xrotation Yrotation Zrotation
		JOINT LeftUpLeg
		{
			OFFSET 6.797100 -2.508499 -1.318700
			CHANNELS 3 Xrotation Yrotation Zrotation
			JOINT LeftLeg
			{
				OFFSET 0.069008 -29.241863 0.690200
				CHANNELS 3 Xrotation Yrotation Zrotation
				JOINT LeftFoot
				{
					OFFSET -0.069008 -29.568123 -0.266800
					CHANNELS 3 Xrotation Yrotation Zrotation
					JOINT LeftToeBase
					{
						OFFSET 3.145500 -8.631000 16.059900
						CHANNELS 3 Xrotation Yrotation Zrotation
						End Site
						{
							OFFSET 0.000000 18.501587 0.000000
						}
					}
				}
			}
			JOINT Left_ShortSleeve
			{
				OFFSET 0.265923 -10.480953 1.153800
				CHANNELS 3 Xrotation Yrotation Zrotation
				End Site
				{
					OFFSET 1.725763 19.823879 0.000000
				}
			}
		}
		JOINT RightUpLeg
		{
			OFFSET -6.797100 -2.508499 -1.318700
			CHANNELS 3 Xrotation Yrotation Zrotation
			JOINT RightLeg
			{
				OFFSET -0.082453 -29.241932 0.688000
				CHANNELS 3 Xrotation Yrotation Zrotation
				JOINT RightFoot
				{
					OFFSET 0.082453 -29.568058 -0.264600
					CHANNELS 3 Xrotation Yrotation Zrotation
					JOINT RightToeBase
					{
						OFFSET -3.115300 -8.682800 16.113400
						CHANNELS 3 Xrotation Yrotation Zrotation
						End Site
						{
							OFFSET 0.000000 18.567114 0.000000
						}
					}
				}
			}
			JOINT Right_ShortSleeve
			{
				OFFSET -0.265923 -10.480953 1.153800
				CHANNELS 3 Xrotation Yrotation Zrotation
				End Site
				{
					OFFSET -1.725766 19.823910 0.000000
				}
			}
		}
	}
	JOINT Spine
	{
		OFFSET 0.000000 13.368103 0.470500
		CHANNELS 3 Xrotation Yrotation Zrotation
		JOINT Spine1
		{
			OFFSET 0.147000 13.837402 0.538800
			CHANNELS 3 Xrotation Yrotation Zrotation
			JOINT Spine2
			{
				OFFSET 0.168000 16.242897 -1.435500
				CHANNELS 3 Xrotation Yrotation Zrotation
				JOINT Neck
				{
					OFFSET 0.217200 18.631500 -1.679100
					CHANNELS 3 Xrotation Yrotation Zrotation
					JOINT Head
					{
						OFFSET 0.000000 6.599396 1.385900
						CHANNELS 3 Xrotation Yrotation Zrotation
						JOINT Hat
						{
							OFFSET -0.532200 27.220596 -10.096100
							CHANNELS 3 Xrotation Yrotation Zrotation
							End Site
							{
								OFFSET 0.000000 22.029861 0.000000
							}
						}
						JOINT HairD
						{
							OFFSET -10.777400 17.437393 -1.325900
							CHANNELS 3 Xrotation Yrotation Zrotation
							JOINT HairD1
							{
								OFFSET -3.290299 -11.051193 1.062200
								CHANNELS 3 Xrotation Yrotation Zrotation
								End Site
								{
									OFFSET 0.000000 11.579437 0.000000
								}
							}
						}
						JOINT HairB
						{
							OFFSET -10.777400 17.437393 1.467900
							CHANNELS 3 Xrotation Yrotation Zrotation
							JOINT HairB1
							{
								OFFSET -1.561200 -12.956299 3.590200
								CHANNELS 3 Xrotation Yrotation Zrotation
								End Site
								{
									OFFSET 0.000000 13.534866 0.000000
								}
							}
						}
						JOINT HairA
						{
							OFFSET 9.713100 17.437393 1.467900
							CHANNELS 3 Xrotation Yrotation Zrotation
							JOINT HairA1
							{
								OFFSET 1.561200 -12.956299 3.590200
								CHANNELS 3 Xrotation Yrotation Zrotation
								End Site
								{
									OFFSET 0.000000 13.534866 0.000000
								}
							}
						}
						JOINT HairC
						{
							OFFSET 9.713100 17.437393 -1.325900
							CHANNELS 3 Xrotation Yrotation Zrotation
							JOINT HairC1
							{
								OFFSET 3.290300 -11.051193 1.062200
								CHANNELS 3 Xrotation Yrotation Zrotation
								End Site
								{
									OFFSET 0.000000 11.579437 0.000000
								}
							}
						}
					}
				}
				JOINT LeftShoulder
				{
					OFFSET 5.101800 15.108002 -2.763700
					CHANNELS 3 Xrotation Yrotation Zrotation
					JOINT LeftArm
					{
						OFFSET 9.825497 2.506317 -1.597400
						CHANNELS 3 Xrotation Yrotation Zrotation
						JOINT LeftForeArm
						{
							OFFSET 21.966244 0.000000 0.000000
							CHANNELS 3 Xrotation Yrotation Zrotation
							JOINT LeftHand
							{
								OFFSET 33.879036 0.000000 0.000000
								CHANNELS 3 Xrotation Yrotation Zrotation
								JOINT LeftHandThumb1
								{
									OFFSET 6.715286 -2.359680 3.363841
									CHANNELS 3 Xrotation Yrotation Zrotation
									JOINT LeftHandThumb2
									{
										OFFSET 2.507072 -1.447464 1.447461
										CHANNELS 3 Xrotation Yrotation Zrotation
										JOINT LeftHandThumb3
										{
											OFFSET 2.898338 -1.673355 1.673357
											CHANNELS 3 Xrotation Yrotation Zrotation
											End Site
											{
												OFFSET -0.295959 3.727692 -0.131651
											}
										}
									}
								}
								JOINT LeftHandIndex1
								{
									OFFSET 14.190811 -0.254547 3.840278
									CHANNELS 3 Xrotation Yrotation Zrotation
									JOINT LeftHandIndex2
									{
										OFFSET 3.551727 0.000000 -0.000000
										CHANNELS 3 Xrotation Yrotation Zrotation
										JOINT LeftHandIndex3
										{
											OFFSET 2.894196 0.000000 0.000000
											CHANNELS 3 Xrotation Yrotation Zrotation
											End Site
											{
												OFFSET -1.000603 2.690872 0.366626
											}
										}
									}
								}
								JOINT LeftHandMiddle1
								{
									OFFSET 13.776489 0.000000 0.000000
									CHANNELS 3 Xrotation Yrotation Zrotation
									JOINT LeftHandMiddle2
									{
										OFFSET 3.438232 0.000000 0.000000
										CHANNELS 3 Xrotation Yrotation Zrotation
										JOINT LeftHandMiddle3
										{
											OFFSET 3.691551 0.000000 0.000000
											CHANNELS 3 Xrotation Yrotation Zrotation
											End Site
											{
												OFFSET -1.082298 3.499527 0.457670
											}
										}
									}
								}
								JOINT LeftHandRing1
								{
									OFFSET 13.966164 -0.268127 -3.067488
									CHANNELS 3 Xrotation Yrotation Zrotation
									JOINT LeftHandRing2
									{
										OFFSET 3.162567 0.000000 0.000000
										CHANNELS 3 Xrotation Yrotation Zrotation
										JOINT LeftHandRing3
										{
											OFFSET 3.324348 0.000000 0.000000
											CHANNELS 3 Xrotation Yrotation Zrotation
											End Site
											{
												OFFSET -0.861900 3.184998 0.405154
											}
										}
									}
								}
								JOINT LeftHandPinky1
								{
									OFFSET 13.131393 -0.168503 -5.746925
									CHANNELS 3 Xrotation Yrotation Zrotation
									JOINT LeftHandPinky2
									{
										OFFSET 2.849182 0.000000 0.000000
										CHANNELS 3 Xrotation Yrotation Zrotation
										JOINT LeftHandPinky3
										{
											OFFSET 2.805038 0.000000 0.000000
											CHANNELS 3 Xrotation Yrotation Zrotation
											End Site
											{
												OFFSET -0.882500 2.642609 0.325652
											}
										}
									}
								}
							}
							JOINT Left_Sleeve
							{
								OFFSET 6.592125 -0.646545 0.805568
								CHANNELS 3 Xrotation Yrotation Zrotation
								End Site
								{
									OFFSET -0.000179 20.275787 -0.000000
								}
							}
						}
					}
				}
				JOINT RightShoulder
				{
					OFFSET -5.731700 15.108002 -2.763700
					CHANNELS 3 Xrotation Yrotation Zrotation
					JOINT RightArm
					{
						OFFSET -9.825497 2.506317 -1.597400
						CHANNELS 3 Xrotation Yrotation Zrotation
						JOINT RightForeArm
						{
							OFFSET -21.966242 0.000000 0.000000
							CHANNELS 3 Xrotation Yrotation Zrotation
							JOINT RightHand
							{
								OFFSET -33.879032 0.000000 0.000000
								CHANNELS 3 Xrotation Yrotation Zrotation
								JOINT RightHandThumb1
								{
									OFFSET -6.715286 -2.359680 3.363841
									CHANNELS 3 Xrotation Yrotation Zrotation
									JOINT RightHandThumb2
									{
										OFFSET -2.507072 -1.447464 1.447461
										CHANNELS 3 Xrotation Yrotation Zrotation
										JOINT RightHandThumb3
										{
											OFFSET -2.898338 -1.673355 1.673357
											CHANNELS 3 Xrotation Yrotation Zrotation
											End Site
											{
												OFFSET 0.295959 3.727692 -0.131651
											}
										}
									}
								}
								JOINT RightHandIndex1
								{
									OFFSET -14.190811 -0.254547 3.840278
									CHANNELS 3 Xrotation Yrotation Zrotation
									JOINT RightHandIndex2
									{
										OFFSET -3.551727 0.000000 -0.000000
										CHANNELS 3 Xrotation Yrotation Zrotation
										JOINT RightHandIndex3
										{
											OFFSET -2.894196 0.000000 0.000000
											CHANNELS 3 Xrotation Yrotation Zrotation
											End Site
											{
												OFFSET 1.000603 2.690872 0.366626
											}
										}
									}
								}
								JOINT RightHandMiddle1
								{
									OFFSET -13.776489 0.000000 0.000000
									CHANNELS 3 Xrotation Yrotation Zrotation
									JOINT RightHandMiddle2
									{
										OFFSET -3.438232 0.000000 0.000000
										CHANNELS 3 Xrotation Yrotation Zrotation
										JOINT RightHandMiddle3
										{
											OFFSET -3.691551 0.000000 0.000000
											CHANNELS 3 Xrotation Yrotation Zrotation
											End Site
											{
												OFFSET 1.082298 3.499527 0.457670
											}
										}
									}
								}
								JOINT RightHandRing1
								{
									OFFSET -13.966164 -0.268127 -3.067488
									CHANNELS 3 Xrotation Yrotation Zrotation
									JOINT RightHandRing2
									{
										OFFSET -3.162567 0.000000 0.000000
										CHANNELS 3 Xrotation Yrotation Zrotation
										JOINT RightHandRing3
										{
											OFFSET -3.324348 0.000000 0.000000
											CHANNELS 3 Xrotation Yrotation Zrotation
											End Site
											{
												OFFSET 0.861900 3.184998 0.405154
											}
										}
									}
								}
								JOINT RightHandPinky1
								{
									OFFSET -13.131393 -0.168503 -5.746925
									CHANNELS 3 Xrotation Yrotation Zrotation
									JOINT RightHandPinky2
									{
										OFFSET -2.849182 0.000000 0.000000
										CHANNELS 3 Xrotation Yrotation Zrotation
										JOINT RightHandPinky3
										{
											OFFSET -2.805038 0.000000 0.000000
											CHANNELS 3 Xrotation Yrotation Zrotation
											End Site
											{
												OFFSET 0.882500 2.642609 0.325652
											}
										}
									}
								}
							}
							JOINT Right_Sleeve
							{
								OFFSET -6.592125 -0.646545 0.805568
								CHANNELS 3 Xrotation Yrotation Zrotation
								End Site
								{
									OFFSET 0.000179 20.275787 -0.000000
								}
							}
						}
					}
				}
				JOINT Bind_Right_JacketString
				{
					OFFSET -3.534800 11.969597 7.200700
					CHANNELS 3 Xrotation Yrotation Zrotation
					JOINT Bind_Right_JacketString1
					{
						OFFSET -0.319900 -6.102600 2.794100
						CHANNELS 3 Xrotation Yrotation Zrotation
						End Site
						{
							OFFSET 0.000000 6.719452 0.000000
						}
					}
				}
				JOINT Bind_Left_JacketString
				{
					OFFSET 2.904800 11.969597 7.200700
					CHANNELS 3 Xrotation Yrotation Zrotation
					JOINT Bind_Left_JacketString1
					{
						OFFSET 0.364800 -5.904503 3.186800
						CHANNELS 3 Xrotation Yrotation Zrotation
						End Site
						{
							OFFSET 0.000000 6.719513 0.000000
						}
					}
				}
				JOINT HairE
				{
					OFFSET 5.915200 17.612701 -11.592200
					CHANNELS 3 Xrotation Yrotation Zrotation
					JOINT HairE1
					{
						OFFSET 0.289200 -7.171898 -1.284500
						CHANNELS 3 Xrotation Yrotation Zrotation
						End Site
						{
							OFFSET 0.000000 7.291756 0.000000
						}
					}
				}
				JOINT HairF
				{
					OFFSET -0.864800 17.612701 -11.592200
					CHANNELS 3 Xrotation Yrotation Zrotation
					JOINT HairF1
					{
						OFFSET 0.000000 -14.087097 -2.127501
						CHANNELS 3 Xrotation Yrotation Zrotation
						End Site
						{
							OFFSET 0.000000 14.246841 0.000000
						}
					}
				}
				JOINT HairG
				{
					OFFSET -8.087700 17.612701 -11.592200
					CHANNELS 3 Xrotation Yrotation Zrotation
					JOINT HairG1
					{
						OFFSET -0.293600 -6.081398 -0.910100
						CHANNELS 3 Xrotation Yrotation Zrotation
						End Site
						{
							OFFSET 0.000000 6.156120 0.000000
						}
					}
				}
			}
		}
	}
	JOINT Pouch
	{
		OFFSET 0.000000 4.394501 10.847300
		CHANNELS 3 Xrotation Yrotation Zrotation
		End Site
		{
			OFFSET 0.000000 21.880577 0.000000
		}
	}
	JOINT Bag
	{
		OFFSET -13.229000 4.813004 -0.593300
		CHANNELS 3 Xrotation Yrotation Zrotation
		End Site
		{
			OFFSET 0.000000 21.880577 0.000000
		}
	}
	JOINT OccupyGuyFacialAnim_Joint
	{
		OFFSET 1.000000 -70.206398 -1.655000
		CHANNELS 3 Xrotation Yrotation Zrotation
		End Site
		{
			OFFSET 0.000000 21.880577 0.000000
		}
	}
}
MOTION
Frames: 4
Frame Time: 0.033333
0.204267 65.008820 -10.064931 -163.276861 -146.214365 -170.367294 -0.000001 0.000003 -0.000001 -28.698648 9.246211 15.391522 46.514801 -3.027663 0.675159 -27.513363 3.660209 -11.936871 -0.000000 -0.000002 0.000000 -0.000000 -0.000002 0.000000 -55.815415 2.589327 -16.553920 47.621257 -8.412976 -4.191844 5.039630 0.460041 9.891361 0.000001 -0.000002 0.000001 -0.000002 -0.000003 -0.000002 6.274056 -1.582863 3.730968 8.354093 -1.786220 5.228382 8.267670 -2.158887 5.256955 4.258191 2.026172 -0.835683 -26.483729 11.178542 -4.006276 -0.000000 0.000001 -0.000001 -0.000000 0.000001 -0.000001 -0.000000 0.000001 -0.000001 -0.000000 0.000001 -0.000001 -0.000000 -0.000002 -0.000000 -0.000000 0.000001 -0.000001 -0.000000 -0.000002 -0.000000 -0.000000 0.000001 -0.000001 -0.000000 0.000001 -0.000001 0.273622 -8.224250 -17.191844 8.817220 -16.415499 -7.827188 0.000191 -82.068780 0.000149 3.067260 6.806616 31.472081 2.333997 -4.852038 -3.963507 13.533778 36.265924 -6.789661 -0.000001 -0.000000 0.000002 2.878051 7.353421 -58.659673 6.385687 5.826638 -95.251851 0.000002 -0.000002 0.000001 2.878052 7.353412 -58.659673 6.420564 5.823363 -95.595232 -0.000000 0.000001 0.000001 3.051708 7.454223 -60.629718 5.249934 5.820214 -84.092811 -0.000000 -0.000001 -0.000001 2.878052 7.353415 -58.659679 3.100886 5.166423 -61.922215 0.000000 -0.000002 -0.000001 0.000000 0.000000 -0.000000 1.210926 20.739608 5.627358 -40.989164 -9.644781 65.755023 0.000525 84.828272 -0.000523 -12.854914 11.029066 -12.890196 -2.436123 13.056725 7.960368 10.437611 -37.751357 -2.845684 -0.000001 -0.000001 0.000001 13.681126 -11.934577 63.592818 4.419748 -4.651101 87.074824 0.000000 0.000002 0.000001 12.206645 -11.976430 60.055087 4.503834 -4.654645 88.111271 -0.000000 -0.000001 -0.000001 10.214006 -13.271110 48.728226 4.210851 -4.635787 84.494604 -0.000000 0.000000 -0.000002 7.033490 -28.065430 26.826372 3.321481 -4.461926 73.315988 0.000001 -0.000001 0.000002 0.000000 0.000000 -0.000001 0.000001 -0.000000 -0.000001 0.000002 -0.000001 0.000001 0.000001 -0.000000 -0.000001 0.000001 -0.000000 -0.000001 0.000001 -0.000000 -0.000001 0.000002 -0.000001 0.000002 0.000001 -0.000000 -0.000001 0.000001 -0.000000 -0.000001 0.000001 -0.000000 -0.000001 0.000002 -0.000001 0.000002 -0.000001 0.000003 -0.000001 -0.000001 0.000003 -0.000001 -0.000001 0.000003 -0.000001 
-0.258925 64.706879 -10.128659 -162.613130 -148.012043 -169.539898 -0.000001 -0.000001 -0.000000 -30.227057 9.104325 15.333194 47.286212 -4.537143 0.701987 -27.438354 3.620602 -11.849603 0.000000 -0.000000 0.000000 0.000000 -0.000001 -0.000000 -52.989007 1.939607 -18.277164 31.832086 -5.991390 -5.060086 3.400468 0.012979 12.861873 -0.000000 0.000001 0.000000 0.000001 -0.000003 -0.000006 6.269895 -1.942093 3.238831 8.374203 -1.585336 5.431683 8.275703 -2.008285 5.479393 4.502639 1.928690 -1.408853 -27.600407 10.537696 -4.699540 -0.000000 -0.000000 -0.000001 -0.000000 -0.000000 -0.000001 -0.000000 -0.000000 -0.000000 -0.000000 -0.000000 -0.000000 -0.000000 -0.000002 0.000001 -0.000000 -0.000000 -0.000000 -0.000000 -0.000002 0.000001 -0.000000 -0.000000 -0.000001 -0.000000 -0.000000 -0.000001 0.196032 -7.690404 -20.213921 6.131555 -14.489674 -6.255112 -0.000403 -82.037149 -0.000420 4.430167 6.087025 30.377908 2.333990 -4.852045 -3.963505 13.533762 36.265897 -6.789641 -0.000001 0.000001 -0.000000 2.878052 7.353395 -58.659679 6.385708 5.826659 -95.251851 0.000001 -0.000001 -0.000000 2.878050 7.353392 -58.659673 6.420568 5.823365 -95.595246 0.000001 0.000002 -0.000001 3.051703 7.454211 -60.629718 5.249949 5.820216 -84.092831 -0.000001 -0.000001 -0.000000 2.878054 7.353389 -58.659673 3.100881 5.166417 -61.922235 0.000000 -0.000001 -0.000001 0.000001 0.000000 -0.000001 1.550005 22.162275 3.912293 -42.374138 -8.509747 66.367015 0.000346 83.016599 -0.000347 -13.147981 12.950483 -13.572647 -3.255275 14.413393 8.646430 10.491684 -37.859336 -2.821464 -0.000001 0.000000 -0.000003 17.121375 -11.959315 69.531558 4.624534 -4.657013 89.598456 -0.000000 0.000000 -0.000001 15.936816 -11.773857 68.502993 4.699343 -4.656963 90.519384 0.000000 0.000000 -0.000001 14.319821 -13.316182 59.748077 4.472279 -4.653528 87.722087 0.000000 -0.000000 -0.000002 12.757956 -26.735572 37.367132 3.726284 -4.563386 78.457434 -0.000001 0.000000 -0.000001 -0.000000 0.000000 -0.000000 -0.000003 0.000000 -0.000001 -0.000001 0.000000 -0.000001 -0.000003 0.000000 -0.000001 -0.000003 0.000000 -0.000001 -0.000003 0.000000 -0.000001 -0.000001 0.000000 -0.000001 -0.000003 0.000000 -0.000001 -0.000003 0.000000 -0.000001 -0.000003 0.000000 -0.000001 -0.000001 0.000000 -0.000001 -0.000001 -0.000001 -0.000000 -0.000001 -0.000001 -0.000000 -0.000001 -0.000001 -0.000000 
-1.260954 64.405327 -10.091529 -162.806015 -150.643524 -169.104487 0.000000 0.000001 -0.000000 -30.584460 8.173088 14.869761 47.365501 -5.771276 1.064630 -27.101053 3.751226 -12.495665 0.000001 0.000000 0.000000 0.000000 -0.000002 -0.000000 -48.627856 0.363192 -19.695423 17.259850 -2.872428 -6.002756 2.226371 -0.303121 13.634961 -0.000001 0.000000 -0.000000 0.000001 0.000001 -0.000000 6.217554 -2.492179 2.769642 8.312855 -1.790479 5.555340 8.183956 -2.270596 5.613036 4.930423 1.822650 -1.954662 -27.506287 9.701083 -5.250082 0.000001 0.000002 0.000000 0.000001 0.000002 0.000000 0.000001 0.000002 0.000000 0.000001 0.000002 -0.000000 0.000001 0.000001 0.000001 0.000001 0.000002 -0.000000 0.000001 0.000001 0.000001 0.000001 0.000002 0.000000 0.000001 0.000002 0.000000 0.129336 -7.375706 -22.974962 4.427628 -12.731759 -4.035391 0.000210 -82.158201 0.000182 4.608531 5.816423 28.844876 2.334001 -4.852051 -3.963508 13.533770 36.265914 -6.789653 -0.000000 0.000001 0.000002 2.878047 7.353416 -58.659673 6.385698 5.826638 -95.251872 0.000001 -0.000003 -0.000004 2.878047 7.353414 -58.659679 6.420566 5.823365 -95.595246 0.000001 0.000004 0.000001 3.051703 7.454227 -60.629697 5.249928 5.820217 -84.092838 0.000001 -0.000002 -0.000001 2.878049 7.353406 -58.659686 3.100877 5.166416 -61.922215 -0.000003 -0.000001 -0.000001 0.000002 -0.000002 0.000002 1.895820 23.548091 2.398903 -43.261243 -7.007541 66.253573 0.000021 81.104542 -0.000032 -13.940048 13.859971 -14.818321 -4.036087 15.671422 9.317827 10.542302 -37.960170 -2.798626 -0.000001 -0.000001 -0.000001 20.385827 -11.451178 75.015469 4.815932 -4.654446 91.956046 -0.000002 -0.000001 -0.000002 19.445156 -10.799528 76.286028 4.881913 -4.651762 92.769070 0.000001 -0.000000 -0.000003 18.257203 -12.309603 69.937039 4.717047 -4.656800 90.737267 -0.000000 -0.000002 -0.000000 17.599881 -24.530484 46.864482 4.111315 -4.625133 83.261638 0.000001 0.000000 -0.000001 0.000001 0.000000 0.000006 -0.000000 -0.000000 -0.000000 0.000001 0.000000 0.000001 -0.000000 -0.000000 -0.000000 -0.000000 -0.000000 -0.000000 -0.000000 -0.000000 -0.000000 0.000001 0.000000 0.000001 -0.000000 -0.000000 -0.000000 -0.000000 -0.000000 -0.000000 -0.000000 -0.000000 -0.000000 0.000001 0.000000 0.000001 0.000000 0.000001 -0.000000 0.000000 0.000001 -0.000000 0.000000 0.000001 -0.000000 
-2.666892 64.087250 -10.045573 -163.765520 -154.865196 -169.311415 -0.000000 -0.000001 -0.000000 -30.592089 6.617897 14.543496 46.912215 -8.104638 1.639240 -26.452409 3.836415 -13.240755 0.000000 0.000002 -0.000000 -0.000001 0.000000 0.000000 -45.515961 -0.787028 -21.890048 9.653053 -0.486988 -6.788076 5.921273 0.303373 17.954141 -0.000001 -0.000001 0.000000 -0.000002 -0.000002 -0.000000 6.230851 -3.137224 2.777817 8.306925 -2.404914 5.749977 8.132051 -2.937548 5.799342 5.180553 1.646945 -2.456771 -27.056394 8.343207 -5.603842 0.000000 0.000000 0.000000 0.000000 0.000000 0.000000 0.000000 0.000000 0.000000 0.000000 0.000000 -0.000000 -0.000000 0.000002 -0.000001 0.000000 0.000000 -0.000000 -0.000000 0.000002 -0.000001 0.000000 0.000000 0.000000 0.000000 0.000000 0.000000 0.022841 -7.670448 -24.889332 3.523448 -11.778246 -1.401906 0.000066 -82.015873 0.000028 3.578507 5.867448 27.640374 2.333998 -4.852060 -3.963508 13.533773 36.265890 -6.789658 -0.000002 -0.000000 -0.000001 2.878046 7.353388 -58.659666 6.385692 5.826647 -95.251858 0.000001 0.000000 0.000002 2.878037 7.353364 -58.659659 6.420561 5.823385 -95.595232 0.000002 0.000003 -0.000001 3.051705 7.454215 -60.629711 5.249929 5.820212 -84.092811 0.000000 0.000002 0.000001 2.878044 7.353385 -58.659666 3.100872 5.166422 -61.922235 -0.000002 -0.000001 -0.000002 -0.000000 -0.000002 0.000002 2.182685 24.489017 1.215643 -44.540944 -6.211045 66.043599 0.000207 79.474176 -0.000219 -14.428273 13.803262 -15.628943 -4.738545 16.773814 9.935378 10.587013 -38.049160 -2.778327 -0.000002 -0.000001 0.000000 23.244597 -10.576018 79.760265 4.984653 -4.645641 94.036781 -0.000000 0.000000 -0.000003 22.435867 -9.313613 82.997713 5.042763 -4.641195 94.754559 0.000000 -0.000001 -0.000003 21.599259 -10.570323 78.731276 4.932945 -4.648998 93.398438 0.000001 -0.000001 -0.000000 21.320019 -21.908718 54.874167 4.454437 -4.652761 87.502332 -0.000001 0.000002 -0.000001 0.000000 0.000001 -0.000002 -0.000000 0.000000 -0.000000 -0.000000 -0.000003 0.000001 -0.000000 0.000000 -0.000000 -0.000000 0.000000 -0.000000 -0.000000 0.000000 -0.000000 -0.000000 -0.000003 0.000001 -0.000000 0.000000 -0.000000 -0.000000 0.000000 -0.000000 -0.000000 0.000000 -0.000000 -0.000000 -0.000003 0.000001 -0.000000 -0.000001 -0.000000 -0.000000 -0.000001 -0.000000 -0.000000 -0.000001 -0.000000 
